<?xml version="1.0" standalone="no"?>
<!DOCTYPE svg PUBLIC "-//W3C//DTD SVG 20010904//EN"
 "http://www.w3.org/TR/2001/REC-SVG-20010904/DTD/svg10.dtd">
<svg version="1.0" xmlns="http://www.w3.org/2000/svg"
 width="4550.000000pt" height="342.000000pt" viewBox="0 0 4550.000000 342.000000"
 preserveAspectRatio="xMidYMid meet">

<g transform="translate(0.000000,342.000000) scale(0.100000,-0.100000)"
fill="#000000" stroke="none">
<path d="M1977 3133 c-49 -56 -173 -349 -206 -490 l-13 -53 78 -87 c42 -49
100 -123 127 -166 l50 -77 30 52 c38 67 84 126 164 208 l62 65 -24 80 c-51
171 -168 445 -202 471 -25 18 -47 17 -66 -3z"/>
<path d="M1552 3077 c-10 -12 -33 -133 -47 -242 -6 -49 -5 -50 31 -75 21 -14
65 -47 98 -73 l60 -48 42 126 c23 69 44 129 48 132 7 7 -26 47 -106 131 -62
64 -101 79 -126 49z"/>
<path d="M2321 3004 c-45 -48 -81 -90 -81 -94 0 -4 20 -66 44 -138 l43 -130
94 70 c52 39 95 79 97 88 5 29 -36 260 -48 276 -7 8 -25 14 -40 14 -22 0 -45
-18 -109 -86z"/>
<path d="M1109 2881 l-23 -19 12 -123 c46 -457 241 -856 472 -967 36 -17 81
-34 100 -38 l35 -7 -51 55 c-112 118 -170 255 -215 508 -6 36 -13 155 -15 265
l-4 200 -48 28 c-66 39 -220 117 -231 117 -5 0 -19 -8 -32 -19z"/>
<path d="M2775 2852 c-49 -27 -109 -59 -131 -72 l-41 -24 -6 -215 c-10 -373
-75 -590 -225 -752 l-57 -62 35 7 c115 23 245 125 331 258 123 193 199 409
234 672 20 149 20 199 -3 219 -27 24 -37 22 -137 -31z"/>
<path d="M1490 2570 c0 -487 179 -840 425 -840 51 0 56 2 50 18 -48 112 -47
215 1 408 11 42 -67 168 -189 307 -56 63 -260 237 -279 237 -4 0 -8 -58 -8
-130z"/>
<path d="M2451 2650 c-154 -120 -308 -290 -373 -415 -69 -133 -101 -341 -64
-429 47 -113 184 -98 310 34 131 137 206 400 206 720 0 77 -3 140 -7 140 -5 0
-37 -23 -72 -50z"/>
<path d="M796 2554 c-9 -8 -16 -23 -16 -33 0 -17 83 -161 125 -217 l20 -27 88
29 c92 31 96 35 77 90 -6 16 -16 58 -23 94 l-14 65 -44 7 c-86 13 -196 9 -213
-8z"/>
<path d="M3013 2563 c-37 -4 -44 -8 -48 -31 -3 -15 -15 -64 -27 -110 -11 -46
-19 -84 -17 -86 8 -5 165 -56 174 -56 16 0 145 214 145 241 0 14 -5 30 -12 37
-12 12 -114 14 -215 5z"/>
<path d="M1008 2231 c-125 -45 -298 -129 -312 -152 -15 -26 1 -63 36 -83 155
-90 397 -192 525 -222 75 -18 226 -44 231 -40 1 2 -16 16 -38 31 -101 70 -235
272 -305 458 -10 26 -20 47 -24 46 -3 0 -54 -17 -113 -38z"/>
<path d="M2881 2233 c-25 -71 -112 -237 -163 -309 -48 -70 -98 -123 -163 -172
-29 -22 -29 -22 -5 -18 14 3 57 10 95 16 100 15 203 45 325 92 96 37 278 126
336 165 29 19 32 63 6 86 -24 22 -187 97 -292 135 -133 48 -124 47 -139 5z"/>
<path d="M1164 1696 c-11 -28 13 -64 58 -88 66 -35 279 -33 531 7 103 16 187
32 187 36 0 4 -129 9 -287 12 -222 3 -304 8 -358 21 -125 30 -124 30 -131 12z"/>
<path d="M2785 1699 c-89 -28 -220 -39 -457 -39 -137 0 -248 -4 -248 -8 0 -4
84 -21 188 -37 226 -36 461 -41 522 -13 47 22 72 51 68 80 -3 26 -27 32 -73
17z"/>
<path d="M1785 1455 c-181 -46 -265 -210 -182 -358 34 -61 95 -92 237 -122
176 -38 210 -58 210 -124 0 -113 -257 -123 -312 -13 l-16 34 -86 1 c-98 2
-102 -2 -67 -78 39 -87 131 -146 256 -165 178 -27 354 50 395 174 24 73 -4
181 -60 234 -45 43 -83 59 -216 87 -138 30 -163 41 -183 77 -19 34 -7 73 32
102 23 17 43 21 100 21 85 0 128 -24 147 -80 l12 -35 84 0 c96 0 96 1 68 83
-21 63 -95 131 -165 152 -79 23 -184 27 -254 10z"/>
<path d="M780 1045 l0 -405 85 0 85 0 2 271 3 272 127 -184 c70 -101 153 -222
186 -269 l59 -85 76 -3 77 -3 0 406 0 405 -85 0 -85 0 -2 -255 -3 -256 -109
158 c-61 87 -139 202 -175 255 l-66 97 -87 1 -88 0 0 -405z"/>
<path d="M2240 1423 c4 -16 54 -183 109 -373 56 -190 107 -360 112 -377 11
-33 11 -33 78 -33 l68 0 73 255 c41 140 76 253 77 251 2 -2 35 -113 74 -247
39 -134 74 -248 78 -252 4 -4 37 -7 72 -5 l63 3 118 395 c64 217 117 398 118
403 0 4 -37 7 -82 7 l-83 0 -16 -58 c-9 -31 -41 -142 -70 -247 -29 -104 -55
-193 -59 -198 -3 -4 -19 39 -34 95 -16 57 -39 139 -52 183 -13 44 -33 113 -44
153 l-21 72 -63 0 -62 0 -68 -242 c-38 -134 -72 -249 -75 -256 -4 -7 -33 81
-65 195 -32 114 -65 229 -73 256 l-14 47 -84 0 -84 0 9 -27z"/>
<path d="M844 536 c-49 -22 -74 -61 -74 -118 0 -60 21 -103 60 -123 33 -17 78
-19 100 -5 9 5 19 5 27 -2 28 -23 43 -1 43 67 l0 65 -60 0 c-53 0 -60 -2 -60
-20 0 -15 7 -20 25 -20 30 0 34 -25 6 -40 -28 -14 -38 -13 -61 10 -34 34 -21
132 19 143 25 6 61 -10 61 -28 0 -10 10 -15 30 -15 51 0 33 61 -25 86 -42 17
-51 17 -91 0z"/>
<path d="M1105 536 c-45 -20 -67 -50 -72 -99 -11 -91 38 -157 114 -157 67 0
112 43 120 114 12 103 -77 181 -162 142z m72 -51 c42 -29 34 -139 -12 -151
-55 -14 -89 48 -65 120 10 30 19 38 50 45 3 0 15 -6 27 -14z"/>
<path d="M1318 410 l45 -131 31 3 c30 3 32 7 73 123 23 66 42 123 42 128 1 4
-12 7 -27 7 -26 0 -30 -5 -56 -86 -15 -47 -31 -83 -34 -79 -4 3 -19 41 -33 83
-24 71 -28 77 -56 80 l-30 3 45 -131z"/>
<path d="M1540 410 l0 -130 90 0 90 0 0 30 0 30 -60 0 c-57 0 -60 1 -60 25 0
23 3 25 50 25 47 0 50 2 50 25 0 23 -3 25 -50 25 -47 0 -50 2 -50 25 0 24 3
25 60 25 57 0 60 1 60 25 0 25 -1 25 -90 25 l-90 0 0 -130z"/>
<path d="M1760 409 l0 -130 28 3 c25 3 27 7 30 51 3 39 6 47 23 47 15 0 26
-14 41 -50 18 -44 24 -50 50 -50 16 0 28 3 26 8 -39 88 -41 102 -22 123 26 29
24 87 -5 110 -18 15 -40 19 -97 19 l-74 0 0 -131z m133 72 c5 -5 6 -18 2 -30
-5 -16 -15 -21 -41 -21 -32 0 -34 2 -34 36 0 36 1 36 32 30 18 -3 36 -10 41
-15z"/>
<path d="M2000 409 l0 -130 28 3 c27 3 27 4 30 81 l3 78 53 -78 c41 -60 59
-79 80 -81 l26 -3 0 130 0 131 -30 0 -30 0 0 -71 c0 -38 -4 -68 -9 -65 -5 3
-28 35 -52 71 -36 54 -47 65 -71 65 l-28 0 0 -131z"/>
<path d="M2270 410 l0 -130 25 0 c25 0 25 2 25 77 0 89 9 87 38 -7 17 -56 23
-65 43 -65 20 0 26 10 49 80 l25 80 3 -83 3 -83 27 3 27 3 3 128 3 127 -43 0
-43 0 -24 -80 c-14 -43 -28 -77 -31 -75 -4 2 -17 38 -29 80 l-23 75 -39 0 -39
0 0 -130z"/>
<path d="M2582 413 l3 -128 88 -3 87 -3 0 31 0 30 -60 0 c-57 0 -60 1 -60 25
0 24 3 25 56 25 52 0 55 1 52 23 -3 19 -10 22 -55 25 -49 3 -53 5 -53 28 0 23
3 24 60 24 57 0 60 1 60 25 0 25 -1 25 -90 25 l-91 0 3 -127z"/>
<path d="M2800 410 l0 -130 30 0 29 0 3 82 3 83 55 -83 c47 -69 59 -82 80 -79
l25 2 3 128 3 127 -30 0 -30 0 -3 -76 -3 -75 -53 75 c-45 66 -56 76 -82 76
l-30 0 0 -130z"/>
<path d="M3050 515 c0 -22 4 -25 40 -25 l40 0 0 -106 0 -105 28 3 27 3 3 103
3 102 34 0 c31 0 35 3 35 25 l0 25 -105 0 -105 0 0 -25z"/>
</g>
</svg>
