<?xml version="1.0" encoding="utf-8"?>
<!-- Generator: Adobe Illustrator 23.1.0, SVG Export Plug-In . SVG Version: 6.00 Build 0)  -->
<svg version="1.1" id="Layer_1" xmlns="http://www.w3.org/2000/svg" xmlns:xlink="http://www.w3.org/1999/xlink" x="0px" y="0px"
	 viewBox="0 0 1440 111" style="enable-background:new 0 0 1440 111;" xml:space="preserve">
<style type="text/css">
	.st0{fill:none;stroke:#FFFFFF;stroke-miterlimit:10;}
	.st1{fill:#FFFFFF;}
	.st2{fill:none;}
	.st3{font-family:'Verdana';}
	.st4{font-size:19px;}
</style>
<g>
	<path class="st0" d="M187,15c0,0-3.5,0-3.5,3.5v72.8c0,0,0,3.5,3.5,3.5h72.8c0,0,3.5,0,3.5-3.5V18.5c0,0,0-3.5-3.5-3.5H187L187,15z
		"/>
	<path class="st1" d="M218.1,32.5h-22.4c-1.2,0-2.2-1-2.2-2.2s1-2.2,2.2-2.2h22.4c1.2,0,2.2,1,2.2,2.2S219.3,32.5,218.1,32.5"/>
	<path class="st1" d="M218.1,46.6h-17.4h-0.4c-1.3,0-2.4-1.1-2.4-2.4s1.1-2.4,2.4-2.4h0.4h10.6c1.2,0,2.2-1,2.2-2.2s-1-2.2-2.2-2.2
		h-15.7c-1.2,0-2.2,1-2.2,2.2v9.3c0,1.2,1,2.2,2.2,2.2H218l0,0c1.2,0,2.2-1,2.2-2.2S219.3,46.6,218.1,46.6L218.1,46.6z"/>
	<path class="st1" d="M249.4,58.9h-18.8c-1.2,0-2.2,1-2.2,2.2v2.2v16.4c0,1.2,1,2.2,2.2,2.2s2.2-1,2.2-2.2V63.3h14.4v16.3
		c0,1.2,1,2.2,2.2,2.2s2.2-1,2.2-2.2V63.2V61C251.6,59.9,250.6,58.9,249.4,58.9L249.4,58.9z"/>
	<path class="st1" d="M218.1,63.3h-22.4c-1.2,0-2.2-1-2.2-2.2s1-2.2,2.2-2.2h22.4c1.2,0,2.2,1,2.2,2.2S219.3,63.3,218.1,63.3"/>
	<path class="st1" d="M218.1,77.4h-17.4h-0.4c-1.3,0-2.4-1.1-2.4-2.4s1.1-2.4,2.4-2.4h0.4h10.6c1.2,0,2.2-1,2.2-2.2s-1-2.2-2.2-2.2
		h-15.7c-1.2,0-2.2,1-2.2,2.2v9.3c0,1.2,1,2.2,2.2,2.2H218l0,0c1.2,0,2.2-1,2.2-2.2C220.3,78.4,219.3,77.4,218.1,77.4L218.1,77.4z"
		/>
	<path class="st1" d="M251.2,46.6h-22.4c-1.2,0-2.2,1-2.2,2.2s1,2.2,2.2,2.2h22.4c1.2,0,2.2-1,2.2-2.2S252.4,46.6,251.2,46.6"/>
	<path class="st1" d="M251.2,32.5h-17.4h-0.4c-1.3,0-2.4,1.1-2.4,2.4c0,1.3,1.1,2.4,2.4,2.4h0.4h10.6c1.2,0,2.2,1,2.2,2.2
		s-1,2.2-2.2,2.2h-15.7c-1.2,0-2.2-1-2.2-2.2v-9.3c0-1.2,1-2.2,2.2-2.2h22.4l0,0c1.2,0,2.2,1,2.2,2.2
		C253.4,31.5,252.4,32.5,251.2,32.5L251.2,32.5z"/>
	<polygon class="st1" points="274.4,15 274.4,15.4 353.6,15.4 353.6,15 	"/>
	<path class="st1" d="M277.2,85.3h1.7l-0.8-2.1L277.2,85.3L277.2,85.3z M275.5,87.3l2-5.1h0.9l2,5.1h-0.8l-0.5-1.3h-2.2l-0.5,1.3
		H275.5L275.5,87.3z"/>
	<polygon class="st1" points="281.7,87.3 281.7,82.3 282.4,82.3 285.2,86 285.2,82.3 286,82.3 286,87.3 285.3,87.3 282.5,83.6 
		282.5,87.3 	"/>
	<polygon class="st1" points="287.9,87.3 287.9,82.3 291.4,82.3 291.4,83 288.7,83 288.7,84.3 290.9,84.3 290.9,85.1 288.7,85.1 
		288.7,86.6 291.5,86.6 291.5,87.3 	"/>
	<path class="st1" d="M293.3,84.3h2.9v0.8h-2.9V84.3L293.3,84.3z M292.8,82.3h3.8V83h-3.8V82.3L292.8,82.3z M292.7,86.6h4.1v0.8
		h-4.1V86.6L292.7,86.6z"/>
	<path class="st1" d="M299.3,85.3h1.7l-0.8-2.1L299.3,85.3L299.3,85.3z M297.7,87.3l2-5.1h0.9l2,5.1h-0.8l-0.5-1.3H299l-0.5,1.3
		H297.7L297.7,87.3z"/>
	<path class="st1" d="M304.6,84.8h1.2c0.3,0,0.5-0.1,0.6-0.3c0.2-0.2,0.3-0.4,0.3-0.6c0-0.3-0.1-0.5-0.3-0.6
		c-0.2-0.2-0.4-0.3-0.6-0.3h-1.2V84.8L304.6,84.8z M303.8,87.3v-5.1h2c0.5,0,0.9,0.2,1.2,0.5c0.3,0.3,0.5,0.7,0.5,1.2
		s-0.2,0.8-0.5,1.2c-0.3,0.3-0.7,0.5-1.2,0.5h-1.2v1.8L303.8,87.3L303.8,87.3z"/>
	<polygon class="st1" points="310,87.3 310,83 308.4,83 308.4,82.3 312.3,82.3 312.3,83 310.7,83 310.7,87.3 	"/>
	<polygon class="st1" points="313.6,87.3 313.6,82.3 314.4,82.3 314.4,84.4 316.9,84.4 316.9,82.3 317.6,82.3 317.6,87.3 
		316.9,87.3 316.9,85.1 314.4,85.1 314.4,87.3 	"/>
	<polygon class="st1" points="320.5,87.3 320.5,83 318.9,83 318.9,82.3 322.8,82.3 322.8,83 321.3,83 321.3,87.3 	"/>
	<polygon class="st1" points="324.1,87.3 324.1,82.3 324.9,82.3 324.9,84.4 327.4,84.4 327.4,82.3 328.2,82.3 328.2,87.3 
		327.4,87.3 327.4,85.1 324.9,85.1 324.9,87.3 	"/>
	<path class="st1" d="M332.7,85.3h1.7l-0.8-2.1L332.7,85.3L332.7,85.3z M331.1,87.3l2-5.1h0.9l2,5.1h-0.8l-0.5-1.3h-2.2l-0.5,1.3
		H331.1L331.1,87.3z"/>
	<path class="st1" d="M338,84.8h1.2c0.3,0,0.5-0.1,0.6-0.3c0.2-0.2,0.3-0.4,0.3-0.6c0-0.3-0.1-0.5-0.3-0.6c-0.2-0.2-0.4-0.3-0.6-0.3
		H338V84.8L338,84.8z M337.2,87.3v-5.1h2c0.5,0,0.9,0.2,1.2,0.5c0.3,0.3,0.5,0.7,0.5,1.2s-0.2,0.8-0.5,1.2c-0.3,0.3-0.7,0.5-1.2,0.5
		H338v1.8L337.2,87.3L337.2,87.3z"/>
	<polygon class="st1" points="341.6,87.3 343.4,84.7 341.8,82.3 342.7,82.3 343.9,84.1 345.2,82.3 346.1,82.3 344.4,84.7 
		346.3,87.3 345.3,87.3 343.9,85.3 342.6,87.3 	"/>
	<polygon class="st1" points="347.5,87.3 347.5,82.3 348.3,82.3 348.3,84.4 350.8,84.4 350.8,82.3 351.6,82.3 351.6,87.3 
		350.8,87.3 350.8,85.1 348.3,85.1 348.3,87.3 	"/>
	<polygon class="st1" points="275.7,32.1 275.7,23.8 281.6,23.8 281.6,25 277,25 277,27.2 280.6,27.2 280.6,28.4 277,28.4 277,30.9 
		281.7,30.9 281.7,32.1 	"/>
	<polygon class="st1" points="283.4,32.1 283.4,23.8 290.2,23.8 290.2,32.1 288.9,32.1 288.9,25 284.8,25 284.8,32.1 	"/>
	<polygon class="st1" points="292.6,23.8 293.9,23.8 293.9,32.1 292.6,32.1 	"/>
	<polygon class="st1" points="297.8,32.1 297.8,25 295.3,25 295.3,23.8 301.6,23.8 301.6,25 299.1,25 299.1,32.1 	"/>
	<path class="st1" d="M304.4,28h2c0.4,0,0.8-0.1,1.1-0.4c0.3-0.3,0.4-0.6,0.4-1.1c0-0.4-0.1-0.8-0.4-1.1c-0.3-0.3-0.6-0.4-1.1-0.4
		h-2V28L304.4,28z M303.1,32.1v-8.3h3.3c0.8,0,1.5,0.3,2,0.8s0.8,1.2,0.8,1.9c0,0.8-0.3,1.4-0.8,1.9s-1.2,0.8-2,0.8h-2v3L303.1,32.1
		L303.1,32.1z"/>
	<path class="st1" d="M312.6,25.8c-0.6,0.6-0.9,1.3-0.9,2.2c0,0.9,0.3,1.6,0.9,2.2s1.3,0.9,2.2,0.9c0.9,0,1.6-0.3,2.2-0.9
		s0.9-1.3,0.9-2.2c0-0.9-0.3-1.6-0.9-2.2s-1.3-0.9-2.2-0.9S313.2,25.2,312.6,25.8 M311.7,31c-0.8-0.8-1.3-1.8-1.3-3s0.4-2.2,1.3-3
		c0.8-0.8,1.9-1.2,3.1-1.2s2.3,0.4,3.1,1.2c0.8,0.8,1.3,1.8,1.3,3s-0.4,2.2-1.3,3c-0.8,0.8-1.9,1.2-3.1,1.2
		C313.6,32.3,312.5,31.8,311.7,31"/>
	<polygon class="st1" points="321.1,32.1 321.1,23.8 327.8,23.8 327.8,32.1 326.5,32.1 326.5,25 322.4,25 322.4,32.1 	"/>
	<polygon class="st1" points="330.2,32.1 330.2,23.8 331.5,23.8 331.5,27.3 335.6,27.3 335.6,23.8 336.9,23.8 336.9,32.1 
		335.6,32.1 335.6,28.5 331.5,28.5 331.5,32.1 	"/>
	<polygon class="st1" points="275.7,46.5 275.7,38.1 281.6,38.1 281.6,39.4 277,39.4 277,41.5 280.6,41.5 280.6,42.8 277,42.8 
		277,45.2 281.7,45.2 281.7,46.5 	"/>
	<polygon class="st1" points="283.4,46.5 283.4,38.1 290.2,38.1 290.2,46.5 288.9,46.5 288.9,39.4 284.8,39.4 284.8,46.5 	"/>
	<path class="st1" d="M294.2,40.1c-0.6,0.6-0.9,1.3-0.9,2.2s0.3,1.6,0.9,2.2c0.6,0.6,1.3,0.9,2.2,0.9c0.9,0,1.6-0.3,2.2-0.9
		c0.6-0.6,0.9-1.3,0.9-2.2s-0.3-1.6-0.9-2.2c-0.6-0.6-1.3-0.9-2.2-0.9C295.6,39.2,294.8,39.5,294.2,40.1 M293.3,45.3
		c-0.8-0.8-1.3-1.8-1.3-3s0.4-2.2,1.3-3c0.8-0.8,1.9-1.2,3.1-1.2s2.3,0.4,3.1,1.2c0.8,0.8,1.3,1.8,1.3,3s-0.4,2.2-1.3,3
		c-0.8,0.8-1.9,1.2-3.1,1.2C295.2,46.6,294.1,46.2,293.3,45.3"/>
	<polygon class="st1" points="302.7,46.5 302.7,38.1 309.4,38.1 309.4,46.5 308.1,46.5 308.1,39.4 304,39.4 304,46.5 	"/>
	<polygon class="st1" points="313.4,46.5 313.4,39.4 310.9,39.4 310.9,38.1 317.2,38.1 317.2,39.4 314.7,39.4 314.7,46.5 	"/>
	<polygon class="st1" points="318.6,46.5 318.6,38.1 324.5,38.1 324.5,39.4 319.9,39.4 319.9,41.5 323.6,41.5 323.6,42.8 
		319.9,42.8 319.9,45.2 324.6,45.2 324.6,46.5 	"/>
	<polygon class="st1" points="326.4,38.1 327.7,38.1 327.7,46.5 326.4,46.5 	"/>
	<path class="st1" d="M331.7,43.1h2.7l-1.4-3.5L331.7,43.1L331.7,43.1z M329,46.5l3.3-8.3h1.4l3.3,8.3h-1.4l-0.8-2.1h-3.7l-0.8,2.1
		H329L329,46.5z"/>
	<polygon class="st1" points="337.9,46.5 337.9,45.4 340.5,42.1 337.9,39.2 337.9,38.1 344,38.1 344,39.4 339.6,39.4 342.1,42.1 
		339.6,45.2 344,45.2 344,46.5 	"/>
	<polygon class="st1" points="275.7,60.8 275.7,52.4 277,52.4 277,56.5 280.8,52.4 282.4,52.4 279.2,55.9 282.7,60.8 281.1,60.8 
		278.3,56.8 277,58.3 277,60.8 	"/>
	<path class="st1" d="M285.5,57.4h2.7l-1.4-3.5L285.5,57.4L285.5,57.4z M282.8,60.8l3.3-8.3h1.4l3.3,8.3h-1.4l-0.8-2.1H285l-0.8,2.1
		H282.8L282.8,60.8z"/>
	<polygon class="st1" points="292.2,52.4 293.5,52.4 293.5,60.8 292.2,60.8 	"/>
	<polygon class="st1" points="298.2,60.8 298.2,52.4 304.1,52.4 304.1,53.7 299.5,53.7 299.5,55.8 303.1,55.8 303.1,57.1 
		299.5,57.1 299.5,59.5 304.2,59.5 304.2,60.8 	"/>
	<polygon class="st1" points="304.8,60.8 308.2,52.4 309.6,52.4 313,60.8 311.6,60.8 308.9,54 306.2,60.8 	"/>
	<polygon class="st1" points="314.3,60.8 314.3,52.4 320.2,52.4 320.2,53.7 315.6,53.7 315.6,55.8 319.2,55.8 319.2,57.1 
		315.6,57.1 315.6,59.5 320.3,59.5 320.3,60.8 	"/>
	<polygon class="st1" points="322,60.8 322,52.4 327.4,52.4 327.4,53.7 323.3,53.7 323.3,60.8 	"/>
	<polygon class="st1" points="327.7,60.8 330.7,56.4 328,52.4 329.5,52.4 331.5,55.5 333.6,52.4 335.1,52.4 332.4,56.4 335.4,60.8 
		333.8,60.8 331.5,57.4 329.3,60.8 	"/>
	<path class="st1" d="M338.1,54.4c-0.6,0.6-0.9,1.3-0.9,2.2s0.3,1.6,0.9,2.2c0.6,0.6,1.3,0.9,2.2,0.9c0.9,0,1.6-0.3,2.2-0.9
		c0.6-0.6,0.9-1.3,0.9-2.2s-0.3-1.6-0.9-2.2c-0.6-0.6-1.3-0.9-2.2-0.9C339.5,53.5,338.7,53.8,338.1,54.4 M337.2,59.6
		c-0.8-0.8-1.3-1.8-1.3-3s0.4-2.2,1.3-3c0.8-0.8,1.9-1.2,3.1-1.2s2.3,0.4,3.1,1.2c0.8,0.8,1.3,1.8,1.3,3s-0.4,2.2-1.3,3
		c-0.8,0.8-1.9,1.2-3.1,1.2C339.1,60.9,338,60.5,337.2,59.6"/>
	<polygon class="st1" points="348.4,60.8 348.4,57.8 345.2,52.4 346.7,52.4 349,56.5 351.4,52.4 352.9,52.4 349.7,57.8 349.7,60.8 	
		"/>
	<polygon class="st1" points="275.5,75.1 275.5,66.7 282.9,66.7 282.9,75.1 280.6,75.1 280.6,68.9 277.7,68.9 277.7,75.1 	"/>
	<path class="st1" d="M287.4,71.4h1.6l-0.8-2.4l0,0L287.4,71.4L287.4,71.4z M283.8,75.1l3.2-8.3h2.5l3.2,8.3h-2.4l-0.6-1.8H287
		l-0.6,1.8H283.8L283.8,75.1z"/>
	<polygon class="st1" points="293.5,66.7 295.8,66.7 295.8,75.1 293.5,75.1 	"/>
	<polygon class="st1" points="297.7,75.1 297.7,66.7 303.5,66.7 303.5,68.9 300,68.9 300,75.1 	"/>
	<polygon class="st1" points="304.7,75.1 304.7,66.7 306.7,66.7 310.3,71.3 310.3,66.7 312.5,66.7 312.5,75.1 310.6,75.1 307,70.5 
		307,75.1 	"/>
	<polygon class="st1" points="314.4,66.7 316.7,66.7 316.7,75.1 314.4,75.1 	"/>
	<path class="st1" d="M318.4,75.1v-1.8h1.3c-0.3-0.2-0.5-0.4-0.7-0.7c-0.5-0.6-0.7-1.3-0.7-2.1c0-1.1,0.4-2.1,1.3-2.9s2-1.2,3.4-1.2
		s2.5,0.4,3.4,1.2c0.9,0.8,1.3,1.7,1.3,2.9c0,0.8-0.2,1.5-0.7,2.1c-0.2,0.3-0.4,0.5-0.7,0.7h1.3v1.8h-3.9v-1.9
		c1.2-0.3,1.7-1.1,1.7-2.3c0-0.7-0.2-1.3-0.7-1.7c-0.4-0.5-1-0.7-1.7-0.7s-1.2,0.2-1.7,0.7c-0.4,0.5-0.7,1-0.7,1.7
		c0,1.2,0.6,1.9,1.7,2.3v1.9H318.4L318.4,75.1z"/>
	<polygon class="st1" points="329.1,75.1 329.1,66.7 331.1,66.7 334.7,71.3 334.7,66.7 336.9,66.7 336.9,75.1 335,75.1 331.4,70.5 
		331.4,75.1 	"/>
	<polygon class="st1" points="274.4,94.6 274.4,95 353.6,95 353.6,94.6 	"/>
</g>
<rect x="411.6" y="34" class="st2" width="862.5" height="43"/>
<text transform="matrix(1 0 0 1 412.0069 48.4509)" class="st1 st3 st4">21+ | ΑΡΜΟΔΙΟΣ ΡΥΘΜΙΣΤΗΣ ΕΕΕΠ | ΚΙΝΔΥΝΟΣ ΕΘΙΣΜΟΥ &amp; ΑΠΩΛΕΙΑΣ ΠΕΡΙΟΥΣΙΑΣ | </text>
<text id="ΓΡΑΜΜΗ_ΒΟΗΘΕΙΑΣ_ΚΕΘΕΑ:_210_9237777__x7C__ΠΑΙΞΕ_ΥΠΕΥΘΥΝΑ" transform="matrix(1 0 0 1 436.4069 76.4509)" class="st1 st3 st4">ΓΡΑΜΜΗ ΒΟΗΘΕΙΑΣ ΚΕΘΕΑ: 210 9237777 | ΠΑΙΞΕ ΥΠΕΥΘΥΝΑ</text>
</svg>
